<?xml version="1.0" encoding="UTF-8" standalone="no"?>
<!-- Created with Inkscape (http://www.inkscape.org/) -->

<svg
   version="1.1"
   id="svg1"
   width="1821.3333"
   height="1024"
   viewBox="0 0 1821.3333 1024"
   sodipodi:docname="formabi.eps"
   xmlns:inkscape="http://www.inkscape.org/namespaces/inkscape"
   xmlns:sodipodi="http://sodipodi.sourceforge.net/DTD/sodipodi-0.dtd"
   xmlns="http://www.w3.org/2000/svg"
   xmlns:svg="http://www.w3.org/2000/svg">
  <defs
     id="defs1">
    <linearGradient
       x1="0"
       y1="0"
       x2="1"
       y2="0"
       gradientUnits="userSpaceOnUse"
       gradientTransform="matrix(2189.92,0,0,-2189.92,1912.94,4293.5)"
       spreadMethod="pad"
       id="linearGradient11">
      <stop
         style="stop-opacity:1;stop-color:#494eaa"
         offset="0"
         id="stop9" />
      <stop
         style="stop-opacity:1;stop-color:#853ba1"
         offset="1"
         id="stop10" />
      <stop
         style="stop-opacity:1;stop-color:#853ba1"
         offset="1"
         id="stop11" />
    </linearGradient>
    <clipPath
       clipPathUnits="userSpaceOnUse"
       id="clipPath11">
      <path
         d="m 2149.7701,4069.7201 161.26,64.72 c 76.57,30.73 162.25,29.56 237.96,-3.24 l 777.28,-336.77 c 22.53,-9.76 48.46,-7.44 68.9,6.15 l 675.36,449.13 c 49.5,32.92 40.44,108.18 -15.46,128.4 l -1149.99,416.11 c -20.26,7.33 -42.74,5.26 -61.32,-5.65 l -895.0801,-525.77 c -50.42,-29.61 -46.76,-103.69 6.33,-128.2 l 137.4401,-63.42 c 18.09,-8.36 38.82,-8.88 57.32,-1.46 z"
         id="path11" />
    </clipPath>
    <linearGradient
       x1="0"
       y1="0"
       x2="1"
       y2="0"
       gradientUnits="userSpaceOnUse"
       gradientTransform="matrix(2224.43,0,0,-2224.43,1967.87,3757.92)"
       spreadMethod="pad"
       id="linearGradient14">
      <stop
         style="stop-opacity:1;stop-color:#494eaa"
         offset="0"
         id="stop12" />
      <stop
         style="stop-opacity:1;stop-color:#853ba1"
         offset="1"
         id="stop13" />
      <stop
         style="stop-opacity:1;stop-color:#853ba1"
         offset="1"
         id="stop14" />
    </linearGradient>
    <clipPath
       clipPathUnits="userSpaceOnUse"
       id="clipPath14">
      <path
         d="m 2197.5901,3739.1601 199.24,112.97 c 8.96,5.08 19.83,5.5 29.15,1.11 l 945.25,-444.57 c 9.38,-4.41 20.32,-3.97 29.3,1.2 l 775.84,540.14 c 21,12.06 21.29,42.24 0.54,54.71 l -168.04,100.94 c -9.7,5.83 -21.78,6.05 -31.68,0.57 l -588.66,-419.32 c -8.55,-4.73 -18.79,-5.25 -27.77,-1.43 l -793.85,337.84 c -106.08,45.15 -226.79,40.56 -329.13,-12.52 l -252.7901,-131.09 c -23.39,-12.13 -22.66,-45.83 1.23,-56.94 l 182.3401,-84.78 c 9.3,-4.32 20.11,-3.89 29.03,1.17 z"
         id="path14" />
    </clipPath>
    <linearGradient
       x1="0"
       y1="0"
       x2="1"
       y2="0"
       gradientUnits="userSpaceOnUse"
       gradientTransform="matrix(2197.1,0,0,-2197.1,2015.26,3319.69)"
       spreadMethod="pad"
       id="linearGradient17">
      <stop
         style="stop-opacity:1;stop-color:#494eaa"
         offset="0"
         id="stop15" />
      <stop
         style="stop-opacity:1;stop-color:#853ba1"
         offset="1"
         id="stop16" />
      <stop
         style="stop-opacity:1;stop-color:#853ba1"
         offset="1"
         id="stop17" />
    </linearGradient>
    <clipPath
       clipPathUnits="userSpaceOnUse"
       id="clipPath17">
      <path
         d="m 4185.1501,3692.9801 -105.01,58.29 c -16.9,9.38 -37.56,8.8 -53.9,-1.52 l -607.74,-451.39 c -15.26,-9.64 -34.38,-10.83 -50.71,-3.15 l -959.64,450.79 c -15.86,7.46 -34.39,6.56 -49.46,-2.38 l -317.54,-188.39 c -36.21,-21.49 -34,-74.63 3.88,-93.04 l 1184.24,-575.42 c 17.36,-8.43 37.93,-6.74 53.67,4.41 l 907.1,712.41 c 31.78,22.51 29.16,70.48 -4.89,89.39 z"
         id="path17" />
    </clipPath>
  </defs>
  <sodipodi:namedview
     id="namedview1"
     pagecolor="#ffffff"
     bordercolor="#000000"
     borderopacity="0.25"
     inkscape:showpageshadow="2"
     inkscape:pageopacity="0.0"
     inkscape:pagecheckerboard="0"
     inkscape:deskcolor="#d1d1d1">
    <inkscape:page
       x="0"
       y="0"
       inkscape:label="1"
       id="page1"
       width="1821.3333"
       height="1024"
       margin="0"
       bleed="0" />
  </sodipodi:namedview>
  <g
     id="g1"
     inkscape:groupmode="layer"
     inkscape:label="1">
    <g
       id="group-R5">
      <path
         id="path2"
         d="m 4863.74,4338.54 c -33.38,-29.38 -50.05,-80.78 -50.05,-154.17 v -2 h 224.24 v -238.26 h -224.24 v -870.93 h -282.3 v 870.93 h -142.15 v 238.26 h 142.15 v 26.03 c 0,132.14 37.69,233.9 113.12,305.33 75.39,71.38 187.2,107.11 335.36,107.11 25.34,0 44.7,-0.69 58.06,-2.01 v -244.26 c -82.77,5.32 -140.84,-6.69 -174.19,-36.03"
         style="fill:#1e2250;fill-opacity:1;fill-rule:nonzero;stroke:none"
         transform="matrix(0.13333333,0,0,-0.13333333,0,1024)" />
      <path
         id="path3"
         d="m 5418.31,3869.03 c -54.75,-55.4 -82.09,-135.83 -82.09,-241.25 0,-105.46 27.34,-185.89 82.09,-241.26 54.71,-55.41 121.44,-83.1 200.22,-83.1 78.74,0 145.47,27.69 200.21,83.1 54.72,55.37 82.09,135.8 82.09,241.26 0,105.42 -27.37,185.85 -82.09,241.25 -54.74,55.37 -121.47,83.09 -200.21,83.09 -78.78,0 -145.51,-27.72 -200.22,-83.09 z m 491.53,259.29 c 86.09,-45.4 153.82,-111.13 203.21,-197.22 49.37,-86.09 74.08,-187.2 74.08,-303.32 0,-116.13 -24.71,-216.92 -74.08,-302.32 -49.39,-85.44 -117.12,-151.17 -203.21,-197.22 -86.09,-46.05 -183.2,-69.08 -291.31,-69.08 -108.12,0 -205.22,23.03 -291.31,69.08 -86.1,46.05 -153.86,111.78 -203.22,197.22 -49.4,85.4 -74.08,186.19 -74.08,302.32 0,116.12 24.68,217.23 74.08,303.32 49.36,86.09 117.12,151.82 203.22,197.22 86.09,45.35 183.19,68.07 291.31,68.07 108.11,0 205.22,-22.72 291.31,-68.07"
         style="fill:#1e2250;fill-opacity:1;fill-rule:nonzero;stroke:none"
         transform="matrix(0.13333333,0,0,-0.13333333,0,1024)" />
      <path
         id="path4"
         d="m 6733.72,4137.32 c 68.07,40.7 144.15,61.07 228.24,61.07 v -302.33 h -82.09 c -206.9,0 -310.33,-96.1 -310.33,-288.31 v -534.57 h -282.3 v 1109.19 h 282.3 v -212.23 c 41.36,70.74 96.1,126.45 164.18,167.18"
         style="fill:#1e2250;fill-opacity:1;fill-rule:nonzero;stroke:none"
         transform="matrix(0.13333333,0,0,-0.13333333,0,1024)" />
      <path
         id="path5"
         d="m 8748.87,4073.25 c 78.07,-83.43 117.11,-201.9 117.11,-355.37 v -644.7 h -280.29 v 612.65 c 0,85.41 -21.72,151.17 -65.08,197.22 -43.38,46.05 -103.1,69.07 -179.19,69.07 -78.77,0 -141.49,-24.71 -188.19,-74.08 -46.74,-49.39 -70.09,-121.47 -70.09,-216.23 v -588.63 h -280.29 v 612.65 c 0,85.41 -21.72,151.17 -65.06,197.22 -43.4,46.05 -103.12,69.07 -179.21,69.07 -78.77,0 -141.49,-24.71 -188.2,-74.08 -46.73,-49.39 -70.07,-121.47 -70.07,-216.23 v -588.63 h -282.3 v 1109.19 h 282.3 v -210.22 c 29.34,72.07 75.74,127.78 139.15,167.17 63.38,39.36 137.15,59.07 221.23,59.07 89.42,0 167.19,-21.37 233.25,-64.07 66.08,-42.74 115.78,-104.11 149.16,-184.2 34.7,76.08 86.41,136.46 155.17,181.19 68.73,44.71 145.81,67.08 231.25,67.08 134.8,0 241.25,-41.73 319.35,-125.14"
         style="fill:#1e2250;fill-opacity:1;fill-rule:nonzero;stroke:none"
         transform="matrix(0.13333333,0,0,-0.13333333,0,1024)" />
      <path
         id="path6"
         d="m 9265.42,3917.08 c -67.42,-71.41 -101.11,-169.87 -101.11,-295.31 0,-125.47 33.69,-223.93 101.11,-295.31 67.38,-71.42 157.17,-107.12 269.29,-107.12 72.07,0 136.45,16.67 193.21,50.05 56.71,33.35 101.11,80.4 133.14,141.15 32.03,60.72 48.05,131.14 48.05,211.23 0,80.08 -16.02,150.82 -48.05,212.23 -32.03,61.37 -76.43,108.42 -133.14,141.15 -56.76,32.69 -121.14,49.05 -193.21,49.05 -112.12,0 -201.91,-35.72 -269.29,-107.12 z m 488.52,189.21 c 74.09,-53.4 125.79,-124.82 155.17,-214.23 v 280.3 h 182.19 V 3073.18 h -182.19 v 280.3 c -29.38,-89.44 -81.08,-160.86 -155.17,-214.22 -74.07,-53.41 -164.52,-80.1 -271.28,-80.1 -97.46,0 -184.2,22.68 -260.29,68.08 -76.07,45.37 -135.84,110.43 -179.19,195.21 -43.39,84.74 -65.07,184.51 -65.07,299.32 0,114.78 21.68,214.88 65.07,300.32 43.35,85.41 103.12,150.82 179.19,196.21 76.09,45.36 162.83,68.07 260.29,68.07 106.76,0 197.21,-26.72 271.28,-80.08"
         style="fill:#1e2250;fill-opacity:1;fill-rule:nonzero;stroke:none"
         transform="matrix(0.13333333,0,0,-0.13333333,0,1024)" />
      <path
         id="path7"
         d="m 10643.9,3975.15 c -57.4,-32.73 -102.1,-79.78 -134.2,-141.15 -32,-61.41 -48,-132.15 -48,-212.23 0,-80.09 16,-150.51 48,-211.23 32.1,-60.75 76.8,-107.8 134.2,-141.15 57.3,-33.38 121.4,-50.05 192.2,-50.05 113.4,0 203.9,35.7 271.3,107.12 67.4,71.38 101.1,169.84 101.1,295.31 0,125.44 -33.7,223.9 -101.1,295.31 -67.4,71.4 -157.9,107.12 -271.3,107.12 -70.8,0 -134.9,-16.36 -192.2,-49.05 z m 504.5,143.15 c 76.1,-45.39 135.8,-110.8 179.2,-196.21 43.4,-85.44 65.1,-185.54 65.1,-300.32 0,-114.81 -21.7,-214.58 -65.1,-299.32 -43.4,-84.78 -103.1,-149.84 -179.2,-195.21 -76.1,-45.4 -162.8,-68.08 -260.3,-68.08 -106.8,0 -197.2,27.04 -271.3,81.1 -74,54.06 -125.1,125.13 -153.1,213.22 v -280.3 h -182.2 v 1481.59 h 182.2 v -662.71 c 28,88.1 79.1,159.17 153.1,213.23 74.1,54.05 164.5,81.08 271.3,81.08 97.5,0 184.2,-22.71 260.3,-68.07"
         style="fill:#1e2250;fill-opacity:1;fill-rule:nonzero;stroke:none"
         transform="matrix(0.13333333,0,0,-0.13333333,0,1024)" />
      <path
         id="path8"
         d="M 11713,4172.36 V 3073.18 h -182.2 v 1099.18 z m -180.2,403.43 c 22.7,20.68 52.7,31.04 90.1,31.04 37.4,0 67.4,-10.36 90.1,-31.04 22.7,-20.71 34.1,-47.74 34.1,-81.09 0,-33.38 -11.4,-60.4 -34.1,-81.08 -22.7,-20.71 -52.7,-31.04 -90.1,-31.04 -37.4,0 -67.4,10.33 -90.1,31.04 -22.7,20.68 -34,47.7 -34,81.08 0,33.35 11.3,60.38 34,81.09"
         style="fill:#1e2250;fill-opacity:1;fill-rule:nonzero;stroke:none"
         transform="matrix(0.13333333,0,0,-0.13333333,0,1024)" />
      <path
         id="path9"
         d="m 2149.77,4069.72 161.26,64.72 c 76.57,30.73 162.25,29.56 237.96,-3.24 l 777.28,-336.77 c 22.53,-9.76 48.46,-7.44 68.9,6.15 l 675.36,449.13 c 49.5,32.92 40.44,108.18 -15.46,128.4 l -1149.99,416.11 c -20.26,7.33 -42.74,5.26 -61.32,-5.65 L 1948.68,4262.8 c -50.42,-29.61 -46.76,-103.69 6.33,-128.2 l 137.44,-63.42 c 18.09,-8.36 38.82,-8.88 57.32,-1.46"
         style="fill:url(#linearGradient11);fill-opacity:1;fill-rule:nonzero;stroke:none"
         transform="matrix(0.13333333,0,0,-0.13333333,0,1024)"
         clip-path="url(#clipPath11)" />
      <path
         id="path12"
         d="m 2197.59,3739.16 199.24,112.97 c 8.96,5.08 19.83,5.5 29.15,1.11 l 945.25,-444.57 c 9.38,-4.41 20.32,-3.97 29.3,1.2 l 775.84,540.14 c 21,12.06 21.29,42.24 0.54,54.71 l -168.04,100.94 c -9.7,5.83 -21.78,6.05 -31.68,0.57 l -588.66,-419.32 c -8.55,-4.73 -18.79,-5.25 -27.77,-1.43 l -793.85,337.84 c -106.08,45.15 -226.79,40.56 -329.13,-12.52 l -252.79,-131.09 c -23.39,-12.13 -22.66,-45.83 1.23,-56.94 l 182.34,-84.78 c 9.3,-4.32 20.11,-3.89 29.03,1.17"
         style="fill:url(#linearGradient14);fill-opacity:1;fill-rule:nonzero;stroke:none"
         transform="matrix(0.13333333,0,0,-0.13333333,0,1024)"
         clip-path="url(#clipPath14)" />
      <path
         id="path15"
         d="m 4185.15,3692.98 -105.01,58.29 c -16.9,9.38 -37.56,8.8 -53.9,-1.52 L 3418.5,3298.36 c -15.26,-9.64 -34.38,-10.83 -50.71,-3.15 L 2408.15,3746 c -15.86,7.46 -34.39,6.56 -49.46,-2.38 l -317.54,-188.39 c -36.21,-21.49 -34,-74.63 3.88,-93.04 l 1184.24,-575.42 c 17.36,-8.43 37.93,-6.74 53.67,4.41 l 907.1,712.41 c 31.78,22.51 29.16,70.48 -4.89,89.39"
         style="fill:url(#linearGradient17);fill-opacity:1;fill-rule:nonzero;stroke:none"
         transform="matrix(0.13333333,0,0,-0.13333333,0,1024)"
         clip-path="url(#clipPath17)" />
    </g>
  </g>
</svg>
